<?xml version="1.0" encoding="UTF-8" standalone="no"?>
<!-- Created with Inkscape (http://www.inkscape.org/) -->

<svg
   version="1.1"
   id="svg2"
   width="311.38531"
   height="504.37866"
   viewBox="0 0 311.38532 504.37867"
   sodipodi:docname="74290934_eps_normal_none.html"
   xmlns:inkscape="http://www.inkscape.org/namespaces/inkscape"
   xmlns:sodipodi="http://sodipodi.sourceforge.net/DTD/sodipodi-0.dtd"
   xmlns="http://www.w3.org/2000/svg"
   xmlns:svg="http://www.w3.org/2000/svg">
  <defs
     id="defs6" />
  <sodipodi:namedview
     id="namedview4"
     pagecolor="#ffffff"
     bordercolor="#000000"
     borderopacity="0.25"
     inkscape:showpageshadow="2"
     inkscape:pageopacity="0.0"
     inkscape:pagecheckerboard="0"
     inkscape:deskcolor="#d1d1d1" />
  <g
     id="g8"
     inkscape:groupmode="layer"
     inkscape:label="ink_ext_XXXXXX"
     transform="matrix(1.3333333,0,0,-1.3333333,-231.52933,656.85332)">
    <path
       d="m 241.782,414.298 c 0,7.876 7.899,32.109 7.899,47.255 0,15.146 -0.895,31.087 -21.469,31.087 -20.573,0 -21.468,-15.941 -21.468,-31.087 0,-15.146 7.9,-39.379 7.9,-47.255 0,-50.89 -40.997,-67.248 -40.997,-121.166 0,-43.461 17.725,-102.795 24.601,-124.179 1.543,-4.8 6.435,-8.094 12.001,-8.094 h 17.963 17.964 c 5.566,0 10.457,3.294 12.001,8.094 6.876,21.384 24.601,80.718 24.601,124.179 0,53.918 -40.996,70.276 -40.996,121.166"
       style="fill:#c8b878;fill-opacity:1;fill-rule:nonzero;stroke:none;stroke-width:0.1"
       id="path14" />
    <path
       d="m 243.526,396.788 c -0.801,3.898 -1.346,8.01 -1.591,12.372 H 214.49 c -0.245,-4.362 -0.79,-8.474 -1.592,-12.372 h 30.628"
       style="fill:#466e57;fill-opacity:1;fill-rule:nonzero;stroke:none;stroke-width:0.1"
       id="path16" />
    <path
       d="m 249.111,379.304 c -1.69,3.931 -3.17,8.029 -4.35,12.373 h -33.097 c -1.181,-4.344 -2.66,-8.442 -4.351,-12.373 h 41.798"
       style="fill:#466e57;fill-opacity:1;fill-rule:nonzero;stroke:none;stroke-width:0.1"
       id="path18" />
    <path
       d="m 225.424,396.788 h -8.435 c 1.101,5.57 2.66,10.113 4.188,12.372 h 3.5 c 0.906,-2.27 1.192,-6.837 0.747,-12.372"
       style="fill:#466e57;fill-opacity:1;fill-rule:nonzero;stroke:none;stroke-width:0.1"
       id="path22" />
    <path
       d="m 221.824,379.304 h -6.099 c -0.322,3.184 -0.2,7.552 0.429,12.373 h 8.683 c -0.718,-4.854 -1.811,-9.206 -3.013,-12.373"
       style="fill:#466e57;fill-opacity:1;fill-rule:nonzero;stroke:none;stroke-width:0.1"
       id="path24" />
    <path
       d="m 366.19,414.298 c 0,7.876 7.898,32.109 7.898,47.255 0,15.146 -0.895,31.087 -21.469,31.087 -20.573,0 -21.468,-15.941 -21.468,-31.087 0,-15.146 7.9,-39.379 7.9,-47.255 0,-50.89 -40.997,-67.248 -40.997,-121.166 0,-43.461 17.725,-102.795 24.601,-124.179 1.543,-4.8 6.435,-8.094 12.001,-8.094 h 17.963 17.964 c 5.566,0 10.457,3.294 12.001,8.094 6.876,21.384 24.602,80.718 24.602,124.179 0,53.918 -40.996,70.276 -40.996,121.166"
       style="fill:#c8b878;fill-opacity:1;fill-rule:nonzero;stroke:none;stroke-width:0.1"
       id="path26" />
    <path
       d="m 367.934,396.788 c -0.802,3.898 -1.346,8.01 -1.592,12.372 h -27.446 c -0.244,-4.362 -0.788,-8.474 -1.59,-12.372 h 30.628"
       style="fill:#466e57;fill-opacity:1;fill-rule:nonzero;stroke:none;stroke-width:0.1"
       id="path28" />
    <path
       d="m 373.519,379.304 c -1.691,3.931 -3.17,8.029 -4.351,12.373 h -33.097 c -1.18,-4.344 -2.661,-8.442 -4.35,-12.373 h 41.798"
       style="fill:#466e57;fill-opacity:1;fill-rule:nonzero;stroke:none;stroke-width:0.1"
       id="path30" />
    <path
       d="m 349.831,396.788 h -8.435 c 1.101,5.57 2.66,10.113 4.188,12.372 h 3.5 c 0.906,-2.27 1.193,-6.837 0.747,-12.372"
       style="fill:#466e57;fill-opacity:1;fill-rule:nonzero;stroke:none;stroke-width:0.1"
       id="path34" />
    <path
       d="m 346.231,379.304 h -6.098 c -0.323,3.184 -0.2,7.552 0.428,12.373 h 8.684 c -0.719,-4.854 -1.812,-9.206 -3.014,-12.373"
       style="fill:#466e57;fill-opacity:1;fill-rule:nonzero;stroke:none;stroke-width:0.1"
       id="path36" />
    <path
       d="m 303.985,367.796 c 0,7.876 7.9,32.109 7.9,47.254 0,15.146 -0.895,31.088 -21.469,31.088 -20.574,0 -21.469,-15.942 -21.469,-31.088 0,-15.145 7.9,-39.378 7.9,-47.254 0,-50.89 -40.997,-67.248 -40.997,-121.167 0,-43.46 17.725,-102.795 24.602,-124.179 1.543,-4.799 6.434,-8.094 12,-8.094 h 17.964 17.964 c 5.566,0 10.457,3.295 12,8.094 6.877,21.384 24.602,80.719 24.602,124.179 0,53.919 -40.997,70.277 -40.997,121.167"
       style="fill:#d4c796;fill-opacity:1;fill-rule:nonzero;stroke:none;stroke-width:0.1"
       id="path38" />
    <path
       d="m 305.729,350.285 c -0.8,3.899 -1.345,8.01 -1.59,12.373 h -27.446 c -0.245,-4.363 -0.79,-8.474 -1.59,-12.373 h 30.626"
       style="fill:#466e57;fill-opacity:1;fill-rule:nonzero;stroke:none;stroke-width:0.1"
       id="path40" />
    <path
       d="m 311.314,332.802 c -1.689,3.93 -3.169,8.028 -4.349,12.373 h -33.097 c -1.181,-4.345 -2.661,-8.443 -4.35,-12.373 h 41.796"
       style="fill:#466e57;fill-opacity:1;fill-rule:nonzero;stroke:none;stroke-width:0.1"
       id="path42" />
    <path
       d="m 287.627,350.285 h -8.435 c 1.101,5.571 2.66,10.114 4.189,12.373 h 3.499 c 0.906,-2.27 1.192,-6.837 0.747,-12.373"
       style="fill:#466e57;fill-opacity:1;fill-rule:nonzero;stroke:none;stroke-width:0.1"
       id="path46" />
    <path
       d="m 284.028,332.802 h -6.099 c -0.322,3.184 -0.2,7.552 0.428,12.373 h 8.683 c -0.718,-4.854 -1.811,-9.206 -3.012,-12.373"
       style="fill:#466e57;fill-opacity:1;fill-rule:nonzero;stroke:none;stroke-width:0.1"
       id="path48" />
  </g>
</svg>
