<svg xmlns="http://www.w3.org/2000/svg" id="Ebene_2" data-name="Ebene 2" viewBox="0 0 2434.385 500.668"><defs><style>      .cls-1 {        stroke-width: 2px;      }      .cls-1, .cls-2 {        stroke: #000;        stroke-miterlimit: 10;      }      .cls-2 {        stroke-width: 6px;      }    </style></defs><g><path class="cls-1" d="M689.116,267.718l2.862,4.579s-2.186,1.452-5.949,3.901c-20.278,13.196-86.354,55.343-103.093,55.343-24.994,0-37.492-9.633-37.492-28.906,0-20.607,13.071-41.401,39.21-62.392,24.998-20.034,47.984-30.051,68.975-30.051,12.02,0,18.031,4.964,18.031,14.882,0,11.448-9.158,21.563-27.475,30.337-16.984,7.253-33.96,14.596-50.944,22.038-18.317,9.543-27.475,21.179-27.475,34.917,0,6.869,4.293,10.303,12.879,10.303,18.129,0,40.976-9.158,68.545-27.475s41.544-27.475,41.929-27.475ZM598.677,263.712c42.93-14.117,64.395-26.903,64.395-38.351,0-4.386-2.102-6.583-6.296-6.583-14.694,0-34.058,14.981-58.099,44.934Z"></path><path class="cls-1" d="M871.999,267.718c-2.862.384-7.539,2.196-14.024,5.438-6.489,3.246-12.307,4.865-17.458,4.865-3.627,0-6.869-1.238-9.731-3.721,27.856-22.512,41.785-41.401,41.785-56.668,0-4.959-2.482-7.441-7.441-7.441-9.543,0-20.132,7.253-31.768,21.751-11.26,13.738-16.886,25.57-16.886,35.489l1.431,5.724c-37.206,32.627-66.685,48.94-88.436,48.94-7.249,0-10.876-1.725-10.876-5.178,0-3.837,10.688-16.158,32.055-36.966,21.367-20.808,32.055-37.157,32.055-49.047,0-13.81-5.438-20.714-16.313-20.714-8.014,0-23.612,8.761-46.794,26.272-23.182,17.517-34.868,29.739-35.06,36.667l3.635,2.822c.379-.24.757-.48,1.142-.71,3.138-2.631,13.261-12.178,30.425-28.703,20.418-19.65,34.917-29.286,43.503-28.906l4.007,2.875c-.192,1.923-10.782,13.622-31.768,35.1-20.987,21.48-31.482,38.163-31.482,50.049,0,16.493,9.064,24.739,27.189,24.739,20.987,0,51.991-16.788,93.016-50.371,4.767,4.391,10.017,6.583,15.741,6.583,10.876,0,21.939-3.814,33.199-11.448l1.717-3.148-2.862-4.293Z"></path><path class="cls-1" d="M1003.08,267.718l2.862,4.579-1.145,2.862c-52.089,37.591-88.052,56.382-107.898,56.382-24.994,0-37.492-9.633-37.492-28.906,0-20.607,13.071-41.401,39.21-62.392,24.998-20.034,47.984-30.051,68.975-30.051,12.02,0,18.031,4.964,18.031,14.882,0,11.448-9.158,21.563-27.475,30.337-16.984,7.253-33.96,14.596-50.944,22.038-18.317,9.543-27.475,21.179-27.475,34.917,0,6.869,4.293,10.303,12.879,10.303,18.129,0,40.976-9.158,68.545-27.475,27.569-18.317,41.544-27.475,41.929-27.475ZM912.64,263.712c42.93-14.117,64.395-26.903,64.395-38.351,0-4.386-2.102-6.583-6.296-6.583-14.694,0-34.058,14.981-58.099,44.934Z"></path><path class="cls-1" d="M1237.965,289.925c5.826-4.567,18.689-17.181,18.689-18.486l-1.717-2.862c-.765.193-14.073,8.97-39.925,26.331-25.856,17.365-45.649,26.044-59.387,26.044-3.434,0-5.152-1.235-5.152-3.712,0-3.04,9.633-14.698,28.906-34.966,19.27-20.266,28.906-37.823,28.906-52.669,0-12.369-5.25-18.554-15.741-18.554-19.274,0-49.039,15.934-89.295,47.796,7.629-12.593,11.448-23.469,11.448-32.627,0-10.11-4.771-15.169-14.31-15.169-11.26,0-28.526,7.441-51.802,22.324-17.172,11.069-32.913,22.896-47.223,35.489l-1.431,2.862,3.148,3.434c50.183-37.779,81.089-56.57,92.729-56.382l3.148,2.589c-29.957,38.933-59.432,75.562-88.436,109.888h32.341c68.116-75.557,118.103-113.336,149.97-113.336l4.865,1.431c-13.165,14.503-26.429,28.906-39.782,43.216-17.172,20.799-25.758,37.018-25.758,48.654,0,13.358,5.912,20.034,17.744,20.034,10.111,0,30.145-7.821,60.102-23.469,8.984-4.684,26.405-16.641,27.962-17.862Z"></path><path class="cls-1" d="M1252.647,275.732l-2.576-4.007s95.207-72.025,119.632-99.312h-14.882l-4.865-3.721c1.525-3.434,10.397-4.865,26.617-4.293l49.799-55.809h33.365l-50.178,55.809h35.994l3.717,4.007c-.572,3.434-15.647,4.772-45.22,4.007-22.896,25.379-45.792,50.756-68.688,76.13-37.779,42.551-56.954,65.826-57.527,69.833l4.293,2.576c22.136,1.145,55.523-16.407,100.171-52.661l2.576,4.007c-.192,8.014-15.741,20.034-46.651,36.061-29.573,15.267-49.607,22.896-60.102,22.896-11.828,0-17.744-6.01-17.744-18.031,0-13.545,6.583-27.95,19.748-43.216,11.64-11.636,23.28-23.276,34.917-34.917-18.697,12.977-39.496,26.524-62.392,40.641Z"></path><path class="cls-1" d="M1541.712,210.764h32.913l-107.326,122.494c29.765-13.738,63.345-35.203,100.744-64.395,3.05-.572,4.579.384,4.579,2.862l-.286,2.576c-2.862,4.2-16.698,14.503-41.499,30.91-23.089,15.075-38.736,24.711-46.938,28.906-6.681,2.478-16.219,7.155-28.62,14.024-27.475,25.758-54.853,51.609-82.14,77.561-37.394,33.387-68.876,50.085-94.447,50.085-14.69,0-22.038-6.874-22.038-20.611,0-22.332,21.367-44.186,64.091-65.561,13.546-6.874,44.925-19.472,94.133-37.793l32.337-38.637c-19.829,12.433-37.085,18.644-51.771,18.644-18.496,0-27.744-10.017-27.744-30.051,0-21.939,14.694-42.93,44.075-62.964,26.903-18.696,51.802-28.048,74.699-28.048,20.987,0,30.526,9.158,28.621,27.475l26.617-27.475ZM1278.665,468.632c22.659,0,46.651-12.977,71.976-38.923,2.097-2.29,20.378-24.711,54.839-67.257-41.32,15.643-69.118,27.091-83.401,34.344-37.891,19.65-56.838,39.111-56.838,58.385,0,8.965,4.476,13.451,13.424,13.451ZM1395.748,323.814c17.172,0,39.782-10.683,67.83-32.055,29.193-22.324,43.789-41.687,43.789-58.099,0-9.731-5.63-14.596-16.886-14.596-13.738,0-35.015,12.405-63.823,37.206-28.808,24.806-43.216,43.887-43.216,57.24,0,6.869,4.105,10.303,12.307,10.303Z"></path><path class="cls-1" d="M1700.267,267.718l2.862,4.579-1.145,2.862c-52.089,37.591-88.052,56.382-107.898,56.382-24.993,0-37.492-9.633-37.492-28.906,0-20.607,13.072-41.401,39.21-62.392,24.998-20.034,47.984-30.051,68.975-30.051,12.02,0,18.031,4.964,18.031,14.882,0,11.448-9.158,21.563-27.475,30.337-16.984,7.253-33.96,14.596-50.944,22.038-18.317,9.543-27.475,21.179-27.475,34.917,0,6.869,4.293,10.303,12.879,10.303,18.129,0,40.976-9.158,68.546-27.475,27.569-18.317,41.543-27.475,41.928-27.475ZM1609.828,263.712c42.93-14.117,64.395-26.903,64.395-38.351,0-4.386-2.102-6.583-6.296-6.583-14.694,0-34.058,14.981-58.099,44.934Z"></path><path class="cls-1" d="M1796.145,221.367l-3.148-2.589c-11.641-.188-42.546,18.603-92.729,56.382l-3.148-3.434,1.431-2.862c14.31-12.593,30.051-24.42,47.223-35.489,23.276-14.882,40.542-22.324,51.802-22.324,9.538,0,14.31,5.058,14.31,15.169,0,9.158-3.819,20.034-11.448,32.627,40.256-31.862,70.021-47.796,89.295-47.796,10.491,0,15.741,6.185,15.741,18.554,0,14.847-9.638,32.403-28.906,52.669-19.274,20.268-28.906,31.925-28.906,34.966,0,2.478,1.717,3.712,5.152,3.712,13.738,0,33.53-8.679,59.388-26.044,25.851-17.36,39.159-26.138,39.924-26.331l1.717,2.862c0,8.014-15.553,20.132-46.651,36.348-29.958,15.648-49.992,23.469-60.102,23.469-11.832,0-17.744-6.676-17.744-20.034,0-11.636,8.586-27.855,25.758-48.654,13.353-14.31,26.617-28.713,39.782-43.216l-4.865-1.431c-31.866,0-81.854,37.779-149.97,113.336h-32.341c29.004-34.326,58.478-70.955,88.436-109.888Z"></path><path class="cls-1" d="M1949.835,275.446l-3.434-4.293c.379-1.717,11.363-10.205,32.949-25.472,23.105-16.788,37.402-28.427,42.894-34.917h37.779c-16.636,18.51-33.271,37.113-49.902,55.809-27.215,30.91-41.017,48.275-41.396,52.089l4.007,2.576c27.096,1.338,74.028-35.489,140.811-110.474h38.637c-16.845,18.51-33.687,37.018-50.528,55.523-27.752,30.91-41.628,48.18-41.628,51.802,0,2.674,2.008,4.007,6.028,4.007,23.339,0,55.863-18.031,97.572-54.092l2.008,3.721-.859,2.576c-41.025,37.972-75.942,56.954-104.75,56.954-11.832,0-17.744-5.626-17.744-16.886,0-8.393,3.721-18.983,11.162-31.768-41.133,33.199-70.978,49.799-89.537,49.799-10.714,0-16.071-6.198-16.071-18.603,0-10.11,12.405-30.337,37.206-60.675-9.731,7.062-21.465,14.503-35.203,22.324Z"></path><path class="cls-1" d="M2298.822,269.467l-.172.094c-18.61,10.244-31.62,16.035-39.038,17.364,6.869-11.255,10.303-23.657,10.303-37.206,0-3.434-.528-8.488-1.575-15.169-1.05-6.676-1.573-11.734-1.573-15.169,0-5.152.286-9.347.859-12.593,11.827-9.538,20.7-16.693,26.617-21.465l-4.293-4.865c-3.627.957-25.951,16.027-66.971,45.22-41.02,29.193-61.913,44.554-62.678,46.078l3.076,3.955c.07-.052.121-.113.195-.163,8.354-5.698,17.264-11.547,26.523-16.406,38.472-26.515,60.415-41.686,65.798-45.485-23.662,74.605-51.896,111.905-84.716,111.905-8.202,0-12.495-2.669-12.879-8.014,14.122.384,21.179-5.438,21.179-17.458,0-7.057-4.1-10.589-12.307-10.589-12.593,0-18.889,7.539-18.889,22.61,0,14.503,9.158,21.751,27.475,21.751,22.896,0,48.556-12.593,76.988-37.779,6.485-.379,15.834-2.955,28.048-7.727,14.117-5.34,21.179-10.396,21.179-15.169l-3.148-3.721Z"></path><path class="cls-1" d="M2398.313,285.749c6.869-11.255,10.303-23.657,10.303-37.206,0-3.434-.528-8.488-1.575-15.169-1.05-6.676-1.573-11.734-1.573-15.169,0-5.152.286-9.347.859-12.593,11.827-9.538,20.7-16.693,26.617-21.465l-4.293-4.865c-3.627.957-25.951,16.027-66.971,45.22-41.02,29.193-61.913,44.554-62.678,46.078l4.007,5.152c54.571-37.586,85.095-58.671,91.584-63.251-23.662,74.605-51.896,111.905-84.716,111.905-8.202,0-12.495-2.669-12.879-8.014,14.122.384,21.179-5.438,21.179-17.458,0-7.057-4.1-10.589-12.307-10.589-12.593,0-18.889,7.539-18.889,22.61,0,14.503,9.158,21.751,27.475,21.751,22.896,0,48.556-12.593,76.988-37.779,1.6-.094,8.101-9.379,6.869-9.158Z"></path></g><path class="cls-2" d="M141.687,484.112S31.408,427.546,9.731,325.113c-.151-.713-.298-1.429-.44-2.147C-11.284,219.177,19.802,126.086,85.105,63.266,150.409.447,275.648-25.045,392.836,45.058c117.188,70.103,135.974,244.905,67.987,346.873-67.987,101.968-133.29,103.637-134.036,103.637s-47.859-4.476.783-87.439c0,0,42.939-27.654,51.326-86.035,0,0,2.386-11.229,2.087-25.492v-57.964s.895-4.856-8.2-3.793c0,0-31.012,5.007-36.081,42.942l-.149,17.45s.214,9.559-12.152,12.739c-.267.069-.54.134-.819.197,0,0-12.748.683-13.866-12.177v-83.304s-3.131-3.869-3.411-6.658c0,0,7.995,21.054,28.235,26.061,0,0,12.3,3.699,25.216,1.195l15.823-4.837s4.585-.512.783-5.69l-37.013-44.383s-47.021-42.164-71.509,14.51v104.016s-1.677,9.142-12.673,10.963c0,0-13.05.338-13.89-11.3-.005-.064-.009-.129-.013-.194-.708-11.836,0-183.906,0-183.906,0,0-1.696-19.195-21.991-19.935,0,0-18.003-1.935-22.867,19.176v184.931s-.391,9.503-12.915,11.096c0,0-11.741.797-13.251-11.096V110.002s-4.752-21.964-22.532-20.94c0,0-17.633.334-21.574,19.646-.041.202-.081.405-.119.611v194.263s-3.019,52.236,49.537,101.399c0,0,27.341,35.211,24.311,65.392-.026.256-.053.511-.084.766,0,0,3.988,49.77-58.091,12.974Z"></path></svg>