<svg xmlns="http://www.w3.org/2000/svg" id="Bildlogo" viewBox="0 0 1141.026 1115.793"><defs><style>      .cls-1 {        stroke: #000;        stroke-miterlimit: 10;        stroke-width: 6px;      }    </style></defs><path class="cls-1" d="M319.662,1082.378S67.863,955.472,18.369,725.663c-.345-1.601-.68-3.206-1.005-4.817C-29.615,487.995,41.364,279.144,190.471,138.208s435.064-198.128,702.638-40.851,310.468,549.447,155.234,778.213-304.34,232.511-306.043,232.511-109.277-10.043,1.787-196.17c0,0,98.043-62.043,117.191-193.021,0,0,5.447-25.191,4.766-57.191v-130.043s2.043-10.894-18.723-8.511c0,0-70.809,11.234-82.383,96.34l-.34,39.149s.489,21.446-27.747,28.579c-.61.154-1.233.301-1.87.442,0,0-29.106,1.532-31.66-27.319v-186.894s-7.149-8.681-7.787-14.936c0,0,18.255,47.234,64.468,58.468,0,0,28.085,8.298,57.574,2.681l36.128-10.851s10.468-1.149,1.787-12.766l-84.511-99.574s-107.362-94.596-163.277,32.553v233.362s-3.83,20.511-28.936,24.596c0,0-29.797.758-31.715-25.351-.011-.144-.02-.29-.029-.436-1.617-26.553,0-412.596,0-412.596,0,0-3.872-43.064-50.213-44.723,0,0-41.106-4.34-52.213,43.021v414.894s-.894,21.319-29.489,24.894c0,0-26.809,1.787-30.255-24.894V243.059s-10.851-49.277-51.447-46.979c0,0-40.262.75-49.26,44.076-.094.452-.184.909-.271,1.37v435.83s-6.894,117.191,113.106,227.489c0,0,62.428,78.997,55.51,146.708-.059.573-.122,1.146-.191,1.717,0,0,9.106,111.66-132.638,29.106Z"></path></svg>