<svg xmlns="http://www.w3.org/2000/svg" xmlns:xlink="http://www.w3.org/1999/xlink" width="1080" viewBox="0 0 810 809.999993" height="1080" preserveAspectRatio="xMidYMid meet"><defs><g></g><clipPath id="00ac827a74"><path d="M 48.722656 0 L 760 0 L 760 709.792969 L 48.722656 709.792969 Z M 48.722656 0 " clip-rule="nonzero"></path></clipPath></defs><g clip-path="url(#00ac827a74)"><path fill="#d04c7d" d="M 48.722656 0 L 759.902344 0 L 759.902344 711.179688 L 48.722656 711.179688 Z M 48.722656 0 " fill-opacity="1" fill-rule="nonzero"></path></g><g fill="#ffffff" fill-opacity="1"><g transform="translate(111.624965, 240.655347)"><g><path d="M 171.90625 0 L 149.375 0 L 149.171875 -108.0625 L 103.515625 -15.078125 L 87.609375 -15.078125 L 41.9375 -108.0625 L 41.9375 0 L 19.015625 0 L 19.015625 -144.625 L 47.9375 -144.625 L 95.65625 -48.546875 L 143.1875 -144.625 L 171.90625 -144.625 Z M 171.90625 0 "></path></g></g></g><g fill="#ffffff" fill-opacity="1"><g transform="translate(328.158686, 240.655347)"><g><path d="M 43.390625 0 L 19.015625 0 L 19.015625 -144.625 L 43.390625 -144.625 Z M 43.390625 0 "></path></g></g></g><g fill="#ffffff" fill-opacity="1"><g transform="translate(415.970531, 240.655347)"><g><path d="M 66.53125 -145.65625 C 85.257812 -145.65625 102.128906 -140.695312 117.140625 -130.78125 L 107.03125 -109.296875 C 92.289062 -118.242188 78.171875 -122.71875 64.671875 -122.71875 C 57.367188 -122.71875 51.613281 -121.410156 47.40625 -118.796875 C 43.207031 -116.179688 41.109375 -112.460938 41.109375 -107.640625 C 41.109375 -102.816406 43.035156 -98.71875 46.890625 -95.34375 C 50.753906 -91.96875 55.578125 -89.488281 61.359375 -87.90625 C 67.148438 -86.320312 73.414062 -84.328125 80.15625 -81.921875 C 86.90625 -79.515625 93.171875 -76.96875 98.953125 -74.28125 C 104.742188 -71.59375 109.53125 -67.390625 113.3125 -61.671875 C 117.101562 -55.953125 119 -49.03125 119 -40.90625 C 119 -28.238281 113.9375 -18.113281 103.8125 -10.53125 C 93.695312 -2.957031 80.582031 0.828125 64.46875 0.828125 C 53.445312 0.828125 42.769531 -1.234375 32.4375 -5.359375 C 22.101562 -9.492188 13.082031 -15.078125 5.375 -22.109375 L 15.90625 -43.1875 C 23.207031 -36.4375 31.226562 -31.234375 39.96875 -27.578125 C 48.71875 -23.929688 57.019531 -22.109375 64.875 -22.109375 C 73.414062 -22.109375 80.0625 -23.65625 84.8125 -26.75 C 89.5625 -29.851562 91.9375 -34.160156 91.9375 -39.671875 C 91.9375 -44.628906 90.007812 -48.796875 86.15625 -52.171875 C 82.300781 -55.546875 77.476562 -58.023438 71.6875 -59.609375 C 65.90625 -61.191406 59.640625 -63.117188 52.890625 -65.390625 C 46.140625 -67.660156 39.867188 -70.070312 34.078125 -72.625 C 28.296875 -75.175781 23.476562 -79.273438 19.625 -84.921875 C 15.769531 -90.566406 13.84375 -97.382812 13.84375 -105.375 C 13.84375 -117.632812 18.660156 -127.410156 28.296875 -134.703125 C 37.941406 -142.003906 50.6875 -145.65625 66.53125 -145.65625 Z M 66.53125 -145.65625 "></path></g></g></g><g fill="#ffffff" fill-opacity="1"><g transform="translate(569.899546, 240.655347)"><g><path d="M 66.53125 -145.65625 C 85.257812 -145.65625 102.128906 -140.695312 117.140625 -130.78125 L 107.03125 -109.296875 C 92.289062 -118.242188 78.171875 -122.71875 64.671875 -122.71875 C 57.367188 -122.71875 51.613281 -121.410156 47.40625 -118.796875 C 43.207031 -116.179688 41.109375 -112.460938 41.109375 -107.640625 C 41.109375 -102.816406 43.035156 -98.71875 46.890625 -95.34375 C 50.753906 -91.96875 55.578125 -89.488281 61.359375 -87.90625 C 67.148438 -86.320312 73.414062 -84.328125 80.15625 -81.921875 C 86.90625 -79.515625 93.171875 -76.96875 98.953125 -74.28125 C 104.742188 -71.59375 109.53125 -67.390625 113.3125 -61.671875 C 117.101562 -55.953125 119 -49.03125 119 -40.90625 C 119 -28.238281 113.9375 -18.113281 103.8125 -10.53125 C 93.695312 -2.957031 80.582031 0.828125 64.46875 0.828125 C 53.445312 0.828125 42.769531 -1.234375 32.4375 -5.359375 C 22.101562 -9.492188 13.082031 -15.078125 5.375 -22.109375 L 15.90625 -43.1875 C 23.207031 -36.4375 31.226562 -31.234375 39.96875 -27.578125 C 48.71875 -23.929688 57.019531 -22.109375 64.875 -22.109375 C 73.414062 -22.109375 80.0625 -23.65625 84.8125 -26.75 C 89.5625 -29.851562 91.9375 -34.160156 91.9375 -39.671875 C 91.9375 -44.628906 90.007812 -48.796875 86.15625 -52.171875 C 82.300781 -55.546875 77.476562 -58.023438 71.6875 -59.609375 C 65.90625 -61.191406 59.640625 -63.117188 52.890625 -65.390625 C 46.140625 -67.660156 39.867188 -70.070312 34.078125 -72.625 C 28.296875 -75.175781 23.476562 -79.273438 19.625 -84.921875 C 15.769531 -90.566406 13.84375 -97.382812 13.84375 -105.375 C 13.84375 -117.632812 18.660156 -127.410156 28.296875 -134.703125 C 37.941406 -142.003906 50.6875 -145.65625 66.53125 -145.65625 Z M 66.53125 -145.65625 "></path></g></g></g><g fill="#ffffff" fill-opacity="1"><g transform="translate(417.724991, 430.293609)"><g></g></g></g><g fill="#ffffff" fill-opacity="1"><g transform="translate(110.904212, 619.931871)"><g><path d="M 115.90625 -122.71875 L 43.390625 -122.71875 L 43.390625 -80.984375 L 109.09375 -80.984375 L 109.09375 -59.296875 L 43.390625 -59.296875 L 43.390625 0 L 19.015625 0 L 19.015625 -144.625 L 116.109375 -144.625 Z M 115.90625 -122.71875 "></path></g></g></g><g fill="#ffffff" fill-opacity="1"><g transform="translate(229.708496, 619.931871)"><g><path d="M 29.125 -124.28125 C 43.863281 -138.257812 62.046875 -145.25 83.671875 -145.25 C 105.296875 -145.25 123.476562 -138.257812 138.21875 -124.28125 C 152.957031 -110.300781 160.328125 -92.976562 160.328125 -72.3125 C 160.328125 -51.65625 152.957031 -34.265625 138.21875 -20.140625 C 123.476562 -6.023438 105.296875 1.03125 83.671875 1.03125 C 62.046875 1.03125 43.863281 -6.023438 29.125 -20.140625 C 14.394531 -34.265625 7.03125 -51.65625 7.03125 -72.3125 C 7.03125 -92.976562 14.394531 -110.300781 29.125 -124.28125 Z M 83.890625 -123.34375 C 69.554688 -123.34375 57.289062 -118.414062 47.09375 -108.5625 C 36.90625 -98.71875 31.8125 -86.632812 31.8125 -72.3125 C 31.8125 -57.988281 36.941406 -45.832031 47.203125 -35.84375 C 57.472656 -25.863281 69.703125 -20.875 83.890625 -20.875 C 98.078125 -20.875 110.195312 -25.863281 120.25 -35.84375 C 130.300781 -45.832031 135.328125 -57.988281 135.328125 -72.3125 C 135.328125 -86.632812 130.300781 -98.71875 120.25 -108.5625 C 110.195312 -118.414062 98.078125 -123.34375 83.890625 -123.34375 Z M 83.890625 -123.34375 "></path></g></g></g><g fill="#ffffff" fill-opacity="1"><g transform="translate(397.067588, 619.931871)"><g><path d="M 29.125 -124.28125 C 43.863281 -138.257812 62.046875 -145.25 83.671875 -145.25 C 105.296875 -145.25 123.476562 -138.257812 138.21875 -124.28125 C 152.957031 -110.300781 160.328125 -92.976562 160.328125 -72.3125 C 160.328125 -51.65625 152.957031 -34.265625 138.21875 -20.140625 C 123.476562 -6.023438 105.296875 1.03125 83.671875 1.03125 C 62.046875 1.03125 43.863281 -6.023438 29.125 -20.140625 C 14.394531 -34.265625 7.03125 -51.65625 7.03125 -72.3125 C 7.03125 -92.976562 14.394531 -110.300781 29.125 -124.28125 Z M 83.890625 -123.34375 C 69.554688 -123.34375 57.289062 -118.414062 47.09375 -108.5625 C 36.90625 -98.71875 31.8125 -86.632812 31.8125 -72.3125 C 31.8125 -57.988281 36.941406 -45.832031 47.203125 -35.84375 C 57.472656 -25.863281 69.703125 -20.875 83.890625 -20.875 C 98.078125 -20.875 110.195312 -25.863281 120.25 -35.84375 C 130.300781 -45.832031 135.328125 -57.988281 135.328125 -72.3125 C 135.328125 -86.632812 130.300781 -98.71875 120.25 -108.5625 C 110.195312 -118.414062 98.078125 -123.34375 83.890625 -123.34375 Z M 83.890625 -123.34375 "></path></g></g></g><g fill="#ffffff" fill-opacity="1"><g transform="translate(564.426679, 619.931871)"><g><path d="M 19.015625 -144.625 L 78.3125 -144.625 C 99.9375 -144.625 117.804688 -137.804688 131.921875 -124.171875 C 146.035156 -110.535156 153.09375 -93.25 153.09375 -72.3125 C 153.09375 -51.375 146 -34.085938 131.8125 -20.453125 C 117.625 -6.816406 99.582031 0 77.6875 0 L 19.015625 0 Z M 43.390625 -122.71875 L 43.390625 -21.90625 L 78.921875 -21.90625 C 93.109375 -21.90625 104.921875 -26.617188 114.359375 -36.046875 C 123.796875 -45.484375 128.515625 -57.5 128.515625 -72.09375 C 128.515625 -86.695312 123.65625 -98.785156 113.9375 -108.359375 C 104.226562 -117.929688 92.210938 -122.71875 77.890625 -122.71875 Z M 43.390625 -122.71875 "></path></g></g></g><g fill="#ffffff" fill-opacity="1"><g transform="translate(106.314052, 428.139715)"><g><path d="M 74.75 -121.671875 L 72.53125 -121.671875 C 72 -123.210938 71.144531 -124.957031 69.96875 -126.90625 C 68.789062 -128.863281 67.242188 -130.695312 65.328125 -132.40625 C 63.410156 -134.125 61.085938 -135.550781 58.359375 -136.6875 C 55.640625 -137.832031 52.429688 -138.40625 48.734375 -138.40625 C 45.429688 -138.40625 42.5 -137.898438 39.9375 -136.890625 C 37.382812 -135.890625 35.25 -134.476562 33.53125 -132.65625 C 31.820312 -130.84375 30.53125 -128.691406 29.65625 -126.203125 C 28.78125 -123.710938 28.34375 -120.957031 28.34375 -117.9375 C 28.34375 -113.09375 29.703125 -108.46875 32.421875 -104.0625 C 35.148438 -99.65625 38.566406 -95.300781 42.671875 -91 C 46.773438 -86.695312 51.210938 -82.390625 55.984375 -78.078125 C 60.765625 -73.773438 65.203125 -69.300781 69.296875 -64.65625 C 73.398438 -60.019531 76.8125 -55.160156 79.53125 -50.078125 C 82.257812 -45.003906 83.625 -39.539062 83.625 -33.6875 C 83.625 -29.320312 82.867188 -24.9375 81.359375 -20.53125 C 79.847656 -16.125 77.507812 -12.171875 74.34375 -8.671875 C 71.1875 -5.179688 67.117188 -2.34375 62.140625 -0.15625 C 57.160156 2.03125 51.242188 3.125 44.390625 3.125 C 40.554688 3.125 36.90625 2.769531 33.4375 2.0625 C 29.976562 1.363281 26.785156 0.492188 23.859375 -0.546875 C 20.929688 -1.597656 18.304688 -2.726562 15.984375 -3.9375 C 13.671875 -5.144531 11.773438 -6.253906 10.296875 -7.265625 L 12.609375 -29.5625 L 15.125 -29.5625 C 15.875 -26.394531 17.085938 -23.382812 18.765625 -20.53125 C 20.441406 -17.675781 22.507812 -15.15625 24.96875 -12.96875 C 27.425781 -10.78125 30.234375 -9.03125 33.390625 -7.71875 C 36.554688 -6.40625 40.019531 -5.75 43.78125 -5.75 C 47.207031 -5.75 50.28125 -6.269531 53 -7.3125 C 55.726562 -8.351562 58.066406 -9.796875 60.015625 -11.640625 C 61.972656 -13.492188 63.472656 -15.695312 64.515625 -18.25 C 65.554688 -20.8125 66.078125 -23.609375 66.078125 -26.640625 C 66.078125 -30.867188 65.300781 -34.78125 63.75 -38.375 C 62.207031 -41.976562 60.175781 -45.394531 57.65625 -48.625 C 55.132812 -51.851562 52.273438 -54.976562 49.078125 -58 C 45.878906 -61.03125 42.597656 -64.078125 39.234375 -67.140625 C 35.878906 -70.203125 32.601562 -73.34375 29.40625 -76.5625 C 26.207031 -79.789062 23.347656 -83.238281 20.828125 -86.90625 C 18.304688 -90.570312 16.269531 -94.503906 14.71875 -98.703125 C 13.175781 -102.910156 12.40625 -107.539062 12.40625 -112.59375 C 12.40625 -117.90625 13.429688 -122.695312 15.484375 -126.96875 C 17.535156 -131.238281 20.257812 -134.882812 23.65625 -137.90625 C 27.050781 -140.9375 30.898438 -143.257812 35.203125 -144.875 C 39.515625 -146.488281 43.957031 -147.296875 48.53125 -147.296875 C 51.882812 -147.296875 54.972656 -147.023438 57.796875 -146.484375 C 60.628906 -145.941406 63.171875 -145.300781 65.421875 -144.5625 C 67.671875 -143.820312 69.632812 -143.082031 71.3125 -142.34375 C 73 -141.601562 74.378906 -141 75.453125 -140.53125 Z M 74.75 -121.671875 "></path></g></g></g><g fill="#ffffff" fill-opacity="1"><g transform="translate(200.33654, 428.139715)"><g><path d="M 14.421875 -144.671875 C 22.828125 -144.671875 31.179688 -144.703125 39.484375 -144.765625 C 47.796875 -144.835938 55.414062 -144.921875 62.34375 -145.015625 C 69.269531 -145.117188 75.1875 -145.269531 80.09375 -145.46875 C 85.007812 -145.675781 88.34375 -145.945312 90.09375 -146.28125 L 85.140625 -132.859375 C 82.921875 -133.460938 80.332031 -134.003906 77.375 -134.484375 C 74.820312 -134.878906 71.710938 -135.257812 68.046875 -135.625 C 64.378906 -136 60.160156 -136.1875 55.390625 -136.1875 C 53.773438 -136.1875 51.835938 -136.132812 49.578125 -136.03125 C 47.328125 -135.9375 45.160156 -135.820312 43.078125 -135.6875 C 40.660156 -135.550781 38.207031 -135.414062 35.71875 -135.28125 L 35.71875 -80.203125 C 42.644531 -80.265625 48.894531 -80.460938 54.46875 -80.796875 C 60.050781 -81.140625 64.796875 -81.476562 68.703125 -81.8125 C 73.273438 -82.21875 77.3125 -82.691406 80.8125 -83.234375 L 77.6875 -68.59375 C 73.039062 -69.207031 68.296875 -69.78125 63.453125 -70.3125 C 59.285156 -70.78125 54.742188 -71.195312 49.828125 -71.5625 C 44.921875 -71.9375 40.21875 -72.125 35.71875 -72.125 L 35.71875 -8.875 C 43.644531 -8.875 50.9375 -9.207031 57.59375 -9.875 C 64.257812 -10.550781 70.082031 -11.328125 75.0625 -12.203125 C 80.84375 -13.148438 86.117188 -14.257812 90.890625 -15.53125 L 87.96875 0.8125 C 87.164062 0.738281 85.957031 0.664062 84.34375 0.59375 C 82.726562 0.53125 80.925781 0.460938 78.9375 0.390625 C 76.957031 0.328125 74.875 0.28125 72.6875 0.25 C 70.5 0.21875 68.429688 0.179688 66.484375 0.140625 C 64.535156 0.109375 62.800781 0.078125 61.28125 0.046875 C 59.769531 0.015625 58.679688 0 58.015625 0 L 14.421875 0 L 14.421875 -0.40625 C 14.828125 -1.8125 15.210938 -3.554688 15.578125 -5.640625 C 15.953125 -7.734375 16.273438 -10.328125 16.546875 -13.421875 C 16.816406 -16.515625 17.019531 -20.195312 17.15625 -24.46875 C 17.289062 -28.738281 17.359375 -33.734375 17.359375 -39.453125 L 17.359375 -105.125 C 17.359375 -110.84375 17.289062 -115.835938 17.15625 -120.109375 C 17.019531 -124.378906 16.816406 -128.078125 16.546875 -131.203125 C 16.273438 -134.328125 15.953125 -136.929688 15.578125 -139.015625 C 15.210938 -141.097656 14.828125 -142.847656 14.421875 -144.265625 Z M 14.421875 -144.671875 "></path></g></g></g><g fill="#ffffff" fill-opacity="1"><g transform="translate(301.622568, 428.139715)"><g><path d="M 80.40625 -147.09375 C 91.632812 -147.09375 102.003906 -145.257812 111.515625 -141.59375 C 121.035156 -137.925781 129.257812 -132.78125 136.1875 -126.15625 C 143.113281 -119.53125 148.523438 -111.578125 152.421875 -102.296875 C 156.328125 -93.015625 158.28125 -82.757812 158.28125 -71.53125 C 158.28125 -65.132812 157.539062 -58.84375 156.0625 -52.65625 C 154.582031 -46.46875 152.410156 -40.613281 149.546875 -35.09375 C 146.691406 -29.582031 143.179688 -24.488281 139.015625 -19.8125 C 134.847656 -15.144531 130.085938 -11.113281 124.734375 -7.71875 C 119.390625 -4.320312 113.488281 -1.664062 107.03125 0.25 C 100.582031 2.164062 93.625 3.125 86.15625 3.125 C 74.925781 3.125 64.550781 1.328125 55.03125 -2.265625 C 45.507812 -5.867188 37.285156 -10.960938 30.359375 -17.546875 C 23.429688 -24.140625 18.015625 -32.0625 14.109375 -41.3125 C 10.210938 -50.5625 8.265625 -60.832031 8.265625 -72.125 C 8.265625 -78.519531 9.003906 -84.8125 10.484375 -91 C 11.972656 -97.1875 14.144531 -103.070312 17 -108.65625 C 19.851562 -114.238281 23.347656 -119.363281 27.484375 -124.03125 C 31.617188 -128.707031 36.359375 -132.757812 41.703125 -136.1875 C 47.054688 -139.625 52.976562 -142.300781 59.46875 -144.21875 C 65.957031 -146.132812 72.9375 -147.09375 80.40625 -147.09375 Z M 86.15625 -5.953125 C 93.625 -5.953125 100.453125 -7.296875 106.640625 -9.984375 C 112.828125 -12.671875 118.15625 -16.570312 122.625 -21.6875 C 127.09375 -26.800781 130.570312 -33.039062 133.0625 -40.40625 C 135.550781 -47.769531 136.796875 -56.125 136.796875 -65.46875 C 136.796875 -75.832031 135.601562 -85.4375 133.21875 -94.28125 C 130.832031 -103.125 127.285156 -110.789062 122.578125 -117.28125 C 117.867188 -123.769531 112 -128.847656 104.96875 -132.515625 C 97.9375 -136.179688 89.75 -138.015625 80.40625 -138.015625 C 72.9375 -138.015625 66.109375 -136.679688 59.921875 -134.015625 C 53.734375 -131.359375 48.398438 -127.507812 43.921875 -122.46875 C 39.453125 -117.425781 35.972656 -111.238281 33.484375 -103.90625 C 31.003906 -96.570312 29.765625 -88.234375 29.765625 -78.890625 C 29.765625 -68.597656 30.941406 -58.992188 33.296875 -50.078125 C 35.648438 -41.171875 39.179688 -33.457031 43.890625 -26.9375 C 48.597656 -20.414062 54.476562 -15.285156 61.53125 -11.546875 C 68.59375 -7.816406 76.800781 -5.953125 86.15625 -5.953125 Z M 86.15625 -5.953125 "></path></g></g></g><g fill="#ffffff" fill-opacity="1"><g transform="translate(468.179574, 428.139715)"><g><path d="M 117.9375 -105.125 C 117.9375 -110.84375 117.867188 -115.835938 117.734375 -120.109375 C 117.597656 -124.378906 117.394531 -128.078125 117.125 -131.203125 C 116.851562 -134.328125 116.550781 -136.929688 116.21875 -139.015625 C 115.882812 -141.097656 115.515625 -142.847656 115.109375 -144.265625 L 115.109375 -144.671875 L 133.0625 -144.671875 L 133.0625 -144.265625 C 132.65625 -142.847656 132.265625 -141.097656 131.890625 -139.015625 C 131.523438 -136.929688 131.222656 -134.328125 130.984375 -131.203125 C 130.753906 -128.078125 130.554688 -124.378906 130.390625 -120.109375 C 130.222656 -115.835938 130.140625 -110.84375 130.140625 -105.125 L 130.140625 -50.640625 C 130.140625 -41.023438 128.757812 -32.820312 126 -26.03125 C 123.25 -19.238281 119.414062 -13.671875 114.5 -9.328125 C 109.59375 -4.992188 103.707031 -1.835938 96.84375 0.140625 C 89.988281 2.128906 82.488281 3.125 74.34375 3.125 C 66.207031 3.125 58.625 2.179688 51.59375 0.296875 C 44.570312 -1.578125 38.453125 -4.613281 33.234375 -8.8125 C 28.023438 -13.019531 23.941406 -18.46875 20.984375 -25.15625 C 18.023438 -31.851562 16.546875 -40.015625 16.546875 -49.640625 L 16.546875 -105.125 C 16.546875 -110.84375 16.476562 -115.835938 16.34375 -120.109375 C 16.207031 -124.378906 16.003906 -128.078125 15.734375 -131.203125 C 15.460938 -134.328125 15.140625 -136.929688 14.765625 -139.015625 C 14.398438 -141.097656 14.019531 -142.847656 13.625 -144.265625 L 13.625 -144.671875 L 37.828125 -144.671875 L 37.828125 -144.265625 C 37.421875 -142.847656 37.03125 -141.097656 36.65625 -139.015625 C 36.289062 -136.929688 35.972656 -134.328125 35.703125 -131.203125 C 35.441406 -128.078125 35.242188 -124.378906 35.109375 -120.109375 C 34.972656 -115.835938 34.90625 -110.84375 34.90625 -105.125 L 34.90625 -48.53125 C 34.90625 -40.519531 36.097656 -33.910156 38.484375 -28.703125 C 40.867188 -23.492188 44.007812 -19.359375 47.90625 -16.296875 C 51.8125 -13.234375 56.253906 -11.097656 61.234375 -9.890625 C 66.210938 -8.679688 71.289062 -8.078125 76.46875 -8.078125 C 81.644531 -8.078125 86.722656 -8.679688 91.703125 -9.890625 C 96.679688 -11.097656 101.101562 -13.234375 104.96875 -16.296875 C 108.832031 -19.359375 111.957031 -23.492188 114.34375 -28.703125 C 116.738281 -33.910156 117.9375 -40.519531 117.9375 -48.53125 Z M 117.9375 -105.125 "></path></g></g></g><g fill="#ffffff" fill-opacity="1"><g transform="translate(614.862726, 428.139715)"><g><path d="M 35.71875 -8.875 C 43.644531 -8.875 50.9375 -9.207031 57.59375 -9.875 C 64.257812 -10.550781 70.082031 -11.328125 75.0625 -12.203125 C 80.84375 -13.148438 86.117188 -14.257812 90.890625 -15.53125 L 87.96875 0.8125 C 87.164062 0.738281 85.957031 0.664062 84.34375 0.59375 C 82.726562 0.53125 80.925781 0.460938 78.9375 0.390625 C 76.957031 0.328125 74.875 0.28125 72.6875 0.25 C 70.5 0.21875 68.429688 0.179688 66.484375 0.140625 C 64.535156 0.109375 62.800781 0.078125 61.28125 0.046875 C 59.769531 0.015625 58.679688 0 58.015625 0 L 14.421875 0 L 14.421875 -0.40625 C 14.828125 -1.8125 15.210938 -3.554688 15.578125 -5.640625 C 15.953125 -7.734375 16.273438 -10.328125 16.546875 -13.421875 C 16.816406 -16.515625 17.019531 -20.195312 17.15625 -24.46875 C 17.289062 -28.738281 17.359375 -33.734375 17.359375 -39.453125 L 17.359375 -105.125 C 17.359375 -110.84375 17.289062 -115.835938 17.15625 -120.109375 C 17.019531 -124.378906 16.816406 -128.078125 16.546875 -131.203125 C 16.273438 -134.328125 15.953125 -136.929688 15.578125 -139.015625 C 15.210938 -141.097656 14.828125 -142.847656 14.421875 -144.265625 L 14.421875 -144.671875 L 38.640625 -144.671875 L 38.640625 -144.265625 C 38.234375 -142.847656 37.84375 -141.097656 37.46875 -139.015625 C 37.101562 -136.929688 36.800781 -134.328125 36.5625 -131.203125 C 36.332031 -128.078125 36.132812 -124.378906 35.96875 -120.109375 C 35.800781 -115.835938 35.71875 -110.84375 35.71875 -105.125 Z M 35.71875 -8.875 "></path></g></g></g><g fill="#d04c7d" fill-opacity="1"><g transform="translate(44.269226, 796.456971)"><g><path d="M 29.84375 -31.59375 L 11.171875 -31.59375 L 11.171875 -20.84375 L 28.078125 -20.84375 L 28.078125 -15.265625 L 11.171875 -15.265625 L 11.171875 0 L 4.890625 0 L 4.890625 -37.234375 L 29.890625 -37.234375 Z M 29.84375 -31.59375 "></path></g></g></g><g fill="#d04c7d" fill-opacity="1"><g transform="translate(74.85226, 796.456971)"><g><path d="M 7.5 -31.984375 C 11.289062 -35.585938 15.96875 -37.390625 21.53125 -37.390625 C 27.101562 -37.390625 31.785156 -35.585938 35.578125 -31.984375 C 39.378906 -28.390625 41.28125 -23.929688 41.28125 -18.609375 C 41.28125 -13.296875 39.378906 -8.820312 35.578125 -5.1875 C 31.785156 -1.550781 27.101562 0.265625 21.53125 0.265625 C 15.96875 0.265625 11.289062 -1.550781 7.5 -5.1875 C 3.707031 -8.820312 1.8125 -13.296875 1.8125 -18.609375 C 1.8125 -23.929688 3.707031 -28.390625 7.5 -31.984375 Z M 21.59375 -31.75 C 17.90625 -31.75 14.75 -30.476562 12.125 -27.9375 C 9.5 -25.40625 8.1875 -22.296875 8.1875 -18.609375 C 8.1875 -14.921875 9.503906 -11.789062 12.140625 -9.21875 C 14.785156 -6.65625 17.9375 -5.375 21.59375 -5.375 C 25.25 -5.375 28.367188 -6.65625 30.953125 -9.21875 C 33.546875 -11.789062 34.84375 -14.921875 34.84375 -18.609375 C 34.84375 -22.296875 33.546875 -25.40625 30.953125 -27.9375 C 28.367188 -30.476562 25.25 -31.75 21.59375 -31.75 Z M 21.59375 -31.75 "></path></g></g></g><g fill="#d04c7d" fill-opacity="1"><g transform="translate(117.934431, 796.456971)"><g><path d="M 7.5 -31.984375 C 11.289062 -35.585938 15.96875 -37.390625 21.53125 -37.390625 C 27.101562 -37.390625 31.785156 -35.585938 35.578125 -31.984375 C 39.378906 -28.390625 41.28125 -23.929688 41.28125 -18.609375 C 41.28125 -13.296875 39.378906 -8.820312 35.578125 -5.1875 C 31.785156 -1.550781 27.101562 0.265625 21.53125 0.265625 C 15.96875 0.265625 11.289062 -1.550781 7.5 -5.1875 C 3.707031 -8.820312 1.8125 -13.296875 1.8125 -18.609375 C 1.8125 -23.929688 3.707031 -28.390625 7.5 -31.984375 Z M 21.59375 -31.75 C 17.90625 -31.75 14.75 -30.476562 12.125 -27.9375 C 9.5 -25.40625 8.1875 -22.296875 8.1875 -18.609375 C 8.1875 -14.921875 9.503906 -11.789062 12.140625 -9.21875 C 14.785156 -6.65625 17.9375 -5.375 21.59375 -5.375 C 25.25 -5.375 28.367188 -6.65625 30.953125 -9.21875 C 33.546875 -11.789062 34.84375 -14.921875 34.84375 -18.609375 C 34.84375 -22.296875 33.546875 -25.40625 30.953125 -27.9375 C 28.367188 -30.476562 25.25 -31.75 21.59375 -31.75 Z M 21.59375 -31.75 "></path></g></g></g><g fill="#d04c7d" fill-opacity="1"><g transform="translate(161.016602, 796.456971)"><g><path d="M 4.890625 -37.234375 L 20.15625 -37.234375 C 25.726562 -37.234375 30.328125 -35.476562 33.953125 -31.96875 C 37.585938 -28.457031 39.40625 -24.003906 39.40625 -18.609375 C 39.40625 -13.222656 37.578125 -8.773438 33.921875 -5.265625 C 30.273438 -1.753906 25.632812 0 20 0 L 4.890625 0 Z M 11.171875 -31.59375 L 11.171875 -5.640625 L 20.3125 -5.640625 C 23.96875 -5.640625 27.007812 -6.851562 29.4375 -9.28125 C 31.863281 -11.707031 33.078125 -14.800781 33.078125 -18.5625 C 33.078125 -22.320312 31.828125 -25.429688 29.328125 -27.890625 C 26.828125 -30.359375 23.734375 -31.59375 20.046875 -31.59375 Z M 11.171875 -31.59375 "></path></g></g></g><g fill="#d04c7d" fill-opacity="1"><g transform="translate(202.237219, 796.456971)"><g><path d="M 4.890625 -37.234375 L 21.0625 -37.234375 C 24.925781 -37.234375 27.972656 -36.40625 30.203125 -34.75 C 32.441406 -33.101562 33.5625 -30.828125 33.5625 -27.921875 C 33.5625 -25.828125 32.972656 -24.046875 31.796875 -22.578125 C 30.628906 -21.109375 29.035156 -20.125 27.015625 -19.625 C 29.503906 -19.195312 31.457031 -18.148438 32.875 -16.484375 C 34.289062 -14.816406 35 -12.726562 35 -10.21875 C 35 -7.019531 33.789062 -4.515625 31.375 -2.703125 C 28.96875 -0.898438 25.65625 0 21.4375 0 L 4.890625 0 Z M 11.171875 -31.640625 L 11.171875 -21.8125 L 20.75 -21.8125 C 22.726562 -21.8125 24.285156 -22.253906 25.421875 -23.140625 C 26.554688 -24.023438 27.125 -25.242188 27.125 -26.796875 C 27.125 -28.359375 26.566406 -29.554688 25.453125 -30.390625 C 24.335938 -31.222656 22.769531 -31.640625 20.75 -31.640625 Z M 11.171875 -16.28125 L 11.171875 -5.578125 L 20.75 -5.578125 C 23.226562 -5.578125 25.148438 -6.046875 26.515625 -6.984375 C 27.878906 -7.929688 28.5625 -9.273438 28.5625 -11.015625 C 28.5625 -12.640625 27.867188 -13.921875 26.484375 -14.859375 C 25.097656 -15.804688 23.1875 -16.28125 20.75 -16.28125 Z M 11.171875 -16.28125 "></path></g></g></g><g fill="#d04c7d" fill-opacity="1"><g transform="translate(239.787845, 796.456971)"><g><path d="M 11.171875 -5.6875 L 27.28125 -5.6875 L 27.28125 0 L 4.890625 0 L 4.890625 -37.234375 L 11.171875 -37.234375 Z M 11.171875 -5.6875 "></path></g></g></g><g fill="#d04c7d" fill-opacity="1"><g transform="translate(268.190175, 796.456971)"><g><path d="M 7.5 -31.984375 C 11.289062 -35.585938 15.96875 -37.390625 21.53125 -37.390625 C 27.101562 -37.390625 31.785156 -35.585938 35.578125 -31.984375 C 39.378906 -28.390625 41.28125 -23.929688 41.28125 -18.609375 C 41.28125 -13.296875 39.378906 -8.820312 35.578125 -5.1875 C 31.785156 -1.550781 27.101562 0.265625 21.53125 0.265625 C 15.96875 0.265625 11.289062 -1.550781 7.5 -5.1875 C 3.707031 -8.820312 1.8125 -13.296875 1.8125 -18.609375 C 1.8125 -23.929688 3.707031 -28.390625 7.5 -31.984375 Z M 21.59375 -31.75 C 17.90625 -31.75 14.75 -30.476562 12.125 -27.9375 C 9.5 -25.40625 8.1875 -22.296875 8.1875 -18.609375 C 8.1875 -14.921875 9.503906 -11.789062 12.140625 -9.21875 C 14.785156 -6.65625 17.9375 -5.375 21.59375 -5.375 C 25.25 -5.375 28.367188 -6.65625 30.953125 -9.21875 C 33.546875 -11.789062 34.84375 -14.921875 34.84375 -18.609375 C 34.84375 -22.296875 33.546875 -25.40625 30.953125 -27.9375 C 28.367188 -30.476562 25.25 -31.75 21.59375 -31.75 Z M 21.59375 -31.75 "></path></g></g></g><g fill="#d04c7d" fill-opacity="1"><g transform="translate(311.272346, 796.456971)"><g><path d="M 30.375 -18.296875 L 35.84375 -18.296875 L 35.84375 -4.578125 C 33.925781 -3.117188 31.664062 -1.945312 29.0625 -1.0625 C 26.457031 -0.175781 23.894531 0.265625 21.375 0.265625 C 15.882812 0.265625 11.25 -1.550781 7.46875 -5.1875 C 3.695312 -8.820312 1.8125 -13.296875 1.8125 -18.609375 C 1.8125 -23.929688 3.722656 -28.390625 7.546875 -31.984375 C 11.378906 -35.585938 16.113281 -37.390625 21.75 -37.390625 C 24.375 -37.390625 26.953125 -36.921875 29.484375 -35.984375 C 32.023438 -35.046875 34.21875 -33.773438 36.0625 -32.171875 L 32.5 -27.546875 C 29.445312 -30.390625 25.863281 -31.8125 21.75 -31.8125 C 17.957031 -31.8125 14.75 -30.53125 12.125 -27.96875 C 9.5 -25.414062 8.1875 -22.296875 8.1875 -18.609375 C 8.1875 -14.890625 9.503906 -11.753906 12.140625 -9.203125 C 14.785156 -6.648438 18.007812 -5.375 21.8125 -5.375 C 24.675781 -5.375 27.53125 -6.222656 30.375 -7.921875 Z M 30.375 -18.296875 "></path></g></g></g><g fill="#d04c7d" fill-opacity="1"><g transform="translate(351.110068, 796.456971)"><g></g></g></g><g fill="#d04c7d" fill-opacity="1"><g transform="translate(364.832526, 796.456971)"><g><path d="M 9.46875 6.171875 L 4.84375 6.171875 L 4.84375 -43.078125 L 9.46875 -43.078125 Z M 9.46875 6.171875 "></path></g></g></g><g fill="#d04c7d" fill-opacity="1"><g transform="translate(379.140069, 796.456971)"><g></g></g></g><g fill="#d04c7d" fill-opacity="1"><g transform="translate(392.862527, 796.456971)"><g><path d="M 29.734375 0 L 17.5 -16.4375 L 11.171875 -9.46875 L 11.171875 0 L 4.890625 0 L 4.890625 -37.234375 L 11.171875 -37.234375 L 11.171875 -17.984375 L 28.9375 -37.234375 L 36.328125 -37.234375 L 21.90625 -21.328125 L 37.28125 0 Z M 29.734375 0 "></path></g></g></g><g fill="#d04c7d" fill-opacity="1"><g transform="translate(431.051419, 796.456971)"><g><path d="M 7.5 -31.984375 C 11.289062 -35.585938 15.96875 -37.390625 21.53125 -37.390625 C 27.101562 -37.390625 31.785156 -35.585938 35.578125 -31.984375 C 39.378906 -28.390625 41.28125 -23.929688 41.28125 -18.609375 C 41.28125 -13.296875 39.378906 -8.820312 35.578125 -5.1875 C 31.785156 -1.550781 27.101562 0.265625 21.53125 0.265625 C 15.96875 0.265625 11.289062 -1.550781 7.5 -5.1875 C 3.707031 -8.820312 1.8125 -13.296875 1.8125 -18.609375 C 1.8125 -23.929688 3.707031 -28.390625 7.5 -31.984375 Z M 21.59375 -31.75 C 17.90625 -31.75 14.75 -30.476562 12.125 -27.9375 C 9.5 -25.40625 8.1875 -22.296875 8.1875 -18.609375 C 8.1875 -14.921875 9.503906 -11.789062 12.140625 -9.21875 C 14.785156 -6.65625 17.9375 -5.375 21.59375 -5.375 C 25.25 -5.375 28.367188 -6.65625 30.953125 -9.21875 C 33.546875 -11.789062 34.84375 -14.921875 34.84375 -18.609375 C 34.84375 -22.296875 33.546875 -25.40625 30.953125 -27.9375 C 28.367188 -30.476562 25.25 -31.75 21.59375 -31.75 Z M 21.59375 -31.75 "></path></g></g></g><g fill="#d04c7d" fill-opacity="1"><g transform="translate(474.13359, 796.456971)"><g><path d="M 21.375 -37.390625 C 24 -37.390625 26.5625 -36.882812 29.0625 -35.875 C 31.5625 -34.863281 33.71875 -33.453125 35.53125 -31.640625 L 31.859375 -27.078125 C 30.515625 -28.523438 28.921875 -29.675781 27.078125 -30.53125 C 25.234375 -31.382812 23.367188 -31.8125 21.484375 -31.8125 C 17.765625 -31.8125 14.617188 -30.539062 12.046875 -28 C 9.472656 -25.46875 8.1875 -22.375 8.1875 -18.71875 C 8.1875 -15.03125 9.472656 -11.914062 12.046875 -9.375 C 14.617188 -6.84375 17.765625 -5.578125 21.484375 -5.578125 C 25.347656 -5.578125 28.804688 -7.050781 31.859375 -10 L 35.578125 -5.84375 C 33.660156 -3.96875 31.425781 -2.476562 28.875 -1.375 C 26.320312 -0.28125 23.753906 0.265625 21.171875 0.265625 C 15.710938 0.265625 11.117188 -1.550781 7.390625 -5.1875 C 3.671875 -8.820312 1.8125 -13.316406 1.8125 -18.671875 C 1.8125 -23.953125 3.695312 -28.390625 7.46875 -31.984375 C 11.25 -35.585938 15.882812 -37.390625 21.375 -37.390625 Z M 21.375 -37.390625 "></path></g></g></g><g fill="#d04c7d" fill-opacity="1"><g transform="translate(511.205524, 796.456971)"><g><path d="M 37.171875 0 L 30.90625 0 L 30.90625 -15.421875 L 11.171875 -15.421875 L 11.171875 0 L 4.890625 0 L 4.890625 -37.234375 L 11.171875 -37.234375 L 11.171875 -21.0625 L 30.90625 -21.0625 L 30.90625 -37.234375 L 37.171875 -37.234375 Z M 37.171875 0 "></path></g></g></g><g fill="#d04c7d" fill-opacity="1"><g transform="translate(553.277131, 796.456971)"><g><path d="M 31.484375 -31.59375 L 11.171875 -31.59375 L 11.171875 -21.546875 L 29.359375 -21.546875 L 29.359375 -15.90625 L 11.171875 -15.90625 L 11.171875 -5.640625 L 32.125 -5.640625 L 32.125 0 L 4.890625 0 L 4.890625 -37.234375 L 31.484375 -37.234375 Z M 31.484375 -31.59375 "></path></g></g></g><g fill="#d04c7d" fill-opacity="1"><g transform="translate(588.168392, 796.456971)"><g><path d="M 21.484375 0 L 15 0 L 0.15625 -37.234375 L 6.921875 -37.234375 L 18.40625 -6.96875 L 30 -37.234375 L 36.546875 -37.234375 Z M 21.484375 0 "></path></g></g></g><g fill="#d04c7d" fill-opacity="1"><g transform="translate(624.868057, 796.456971)"><g><path d="M 31.484375 -31.59375 L 11.171875 -31.59375 L 11.171875 -21.546875 L 29.359375 -21.546875 L 29.359375 -15.90625 L 11.171875 -15.90625 L 11.171875 -5.640625 L 32.125 -5.640625 L 32.125 0 L 4.890625 0 L 4.890625 -37.234375 L 31.484375 -37.234375 Z M 31.484375 -31.59375 "></path></g></g></g><g fill="#d04c7d" fill-opacity="1"><g transform="translate(659.759317, 796.456971)"><g><path d="M 37.171875 0 L 31.015625 0 L 11.171875 -26.703125 L 11.171875 0 L 4.890625 0 L 4.890625 -37.234375 L 11.0625 -37.234375 L 31.015625 -10.484375 L 31.015625 -37.234375 L 37.171875 -37.234375 Z M 37.171875 0 "></path></g></g></g><g fill="#d04c7d" fill-opacity="1"><g transform="translate(701.884073, 796.456971)"><g><path d="M 30.3125 -31.59375 L 18.515625 -31.59375 L 18.515625 0 L 12.234375 0 L 12.234375 -31.59375 L 0.484375 -31.59375 L 0.484375 -37.234375 L 30.3125 -37.234375 Z M 30.3125 -31.59375 "></path></g></g></g><g fill="#d04c7d" fill-opacity="1"><g transform="translate(732.679894, 796.456971)"><g><path d="M 17.125 -37.5 C 21.945312 -37.5 26.289062 -36.222656 30.15625 -33.671875 L 27.546875 -28.140625 C 23.753906 -30.441406 20.117188 -31.59375 16.640625 -31.59375 C 14.765625 -31.59375 13.285156 -31.253906 12.203125 -30.578125 C 11.117188 -29.910156 10.578125 -28.953125 10.578125 -27.703125 C 10.578125 -26.460938 11.070312 -25.410156 12.0625 -24.546875 C 13.0625 -23.679688 14.304688 -23.039062 15.796875 -22.625 C 17.285156 -22.21875 18.898438 -21.703125 20.640625 -21.078125 C 22.378906 -20.460938 23.988281 -19.804688 25.46875 -19.109375 C 26.957031 -18.421875 28.191406 -17.34375 29.171875 -15.875 C 30.148438 -14.40625 30.640625 -12.625 30.640625 -10.53125 C 30.640625 -7.269531 29.332031 -4.660156 26.71875 -2.703125 C 24.113281 -0.753906 20.738281 0.21875 16.59375 0.21875 C 13.757812 0.21875 11.007812 -0.3125 8.34375 -1.375 C 5.6875 -2.445312 3.367188 -3.882812 1.390625 -5.6875 L 4.09375 -11.109375 C 5.976562 -9.378906 8.046875 -8.039062 10.296875 -7.09375 C 12.546875 -6.15625 14.679688 -5.6875 16.703125 -5.6875 C 18.898438 -5.6875 20.609375 -6.082031 21.828125 -6.875 C 23.054688 -7.675781 23.671875 -8.789062 23.671875 -10.21875 C 23.671875 -11.488281 23.171875 -12.554688 22.171875 -13.421875 C 21.179688 -14.296875 19.941406 -14.9375 18.453125 -15.34375 C 16.960938 -15.75 15.347656 -16.242188 13.609375 -16.828125 C 11.878906 -17.421875 10.269531 -18.039062 8.78125 -18.6875 C 7.289062 -19.34375 6.046875 -20.398438 5.046875 -21.859375 C 4.054688 -23.316406 3.5625 -25.070312 3.5625 -27.125 C 3.5625 -30.28125 4.800781 -32.796875 7.28125 -34.671875 C 9.769531 -36.554688 13.050781 -37.5 17.125 -37.5 Z M 17.125 -37.5 "></path></g></g></g></svg>